<?xml version="1.0" encoding="UTF-8" standalone="no"?><!DOCTYPE svg PUBLIC "-//W3C//DTD SVG 1.1//EN" "http://www.w3.org/Graphics/SVG/1.1/DTD/svg11.dtd"><svg width="100%" height="100%" viewBox="0 0 100 61" version="1.1" xmlns="http://www.w3.org/2000/svg" xmlns:xlink="http://www.w3.org/1999/xlink" xml:space="preserve" xmlns:serif="http://www.serif.com/" style="fill-rule:evenodd;clip-rule:evenodd;stroke-linejoin:round;stroke-miterlimit:1.41421;"><rect id="Artboard2" x="-11" y="-20" width="202" height="96" style="fill:none;"/><g id="Artboard21" serif:id="Artboard2"><g><path d="M5.065,53.54c0,0.192 0.007,0.419 0.023,0.683c0.016,0.263 0.072,0.514 0.168,0.754c0.096,0.239 0.247,0.443 0.455,0.61c0.207,0.168 0.503,0.252 0.886,0.252c0.383,0 0.678,-0.084 0.886,-0.252c0.207,-0.167 0.359,-0.371 0.454,-0.61c0.096,-0.24 0.152,-0.491 0.168,-0.754c0.016,-0.264 0.024,-0.491 0.024,-0.683l0,-37.54l3.065,0l0,37.54c0,0.192 -0.024,0.539 -0.072,1.042c-0.048,0.503 -0.216,1.017 -0.503,1.544c-0.287,0.527 -0.742,0.994 -1.365,1.401c-0.622,0.407 -1.508,0.61 -2.657,0.61c-1.149,0 -2.035,-0.203 -2.658,-0.61c-0.622,-0.407 -1.077,-0.874 -1.364,-1.401c-0.288,-0.527 -0.455,-1.041 -0.503,-1.544c-0.048,-0.503 -0.072,-0.85 -0.072,-1.042l0,-37.54l3.065,0l0,37.54Z" style="fill:#d0d0d0;fill-rule:nonzero;"/><path d="M23.452,37.25l3.064,0l0,-21.25l3.065,0l0,41.371l-3.065,0l0,-17.823l-3.064,0l0,17.823l-3.065,0l0,-41.371l3.065,0l0,21.25Z" style="fill:#d0d0d0;fill-rule:nonzero;"/><path d="M32.645,39.548l3.065,0l0,17.823l-3.065,0l0,-17.823Zm3.065,-2.298l-3.065,0l0,-21.25l3.065,0l0,21.25Zm-6.129,20.121l0,-41.371l0,41.371Z" style="fill:#d0d0d0;"/><path d="M14.258,39.548l3.065,0l0,17.823l-3.065,0l0,-17.823Zm3.065,-2.298l-3.065,0l0,-21.25l3.065,0l0,21.25Zm-6.129,20.121l0,-41.371l0,41.371Z" style="fill:#d0d0d0;"/><path d="M51.032,39.548l3.065,0l0,17.823l-3.065,0l0,-17.823Zm3.065,-2.298l-3.065,0l0,-21.25l3.065,0l0,21.25Zm-6.129,20.121l0,-41.371l0,41.371Z" style="fill:#d0d0d0;"/><path d="M41.839,37.25l3.064,0l0,-21.25l3.065,0l0,41.371l-3.065,0l0,-17.823l-3.064,0l0,17.823l-3.065,0l0,-41.371l3.065,0l0,21.25Z" style="fill:#d0d0d0;fill-rule:nonzero;"/><path d="M60.226,37.25l3.064,0l0,-21.25l3.065,0l0,41.371l-3.065,0l0,-17.823l-3.064,0l0,17.823l-3.065,0l0,-41.371l3.065,0l0,21.25Z" style="fill:#d0d0d0;fill-rule:nonzero;"/><path d="M69.419,39.548l3.065,0l0,17.823l-3.065,0l0,-17.823Zm3.065,-2.298l-3.065,0l0,-21.25l3.065,0l0,21.25Zm-6.129,20.121l0,-41.371l0,41.371Z" style="fill:#d0d0d0;"/><path d="M87.806,39.548l3.065,0l0,17.823l-3.065,0l0,-17.823Zm3.065,-2.298l-3.065,0l0,-21.25l3.065,0l0,21.25Zm-6.129,20.121l0,-41.371l0,41.371Z" style="fill:#d0d0d0;"/><path d="M78.613,37.25l3.064,0l0,-21.25l3.065,0l0,41.371l-3.065,0l0,-17.823l-3.064,0l0,17.823l-3.065,0l0,-41.371l3.065,0l0,21.25Z" style="fill:#d0d0d0;fill-rule:nonzero;"/><path d="M97,35.153l0,22.218l-3.065,0l0,-41.371l3.065,0l0,19.153Z" style="fill:#d0d0d0;fill-rule:nonzero;"/></g><path d="M2.22,12.045c-0.147,0 -0.22,-0.069 -0.22,-0.208l0,-8.684c0,-0.138 0.073,-0.208 0.22,-0.208l3.308,0c0.652,0 1.226,0.109 1.722,0.325c0.496,0.217 0.88,0.527 1.151,0.93c0.271,0.403 0.406,0.873 0.406,1.41l0,3.77c0,0.538 -0.135,1.008 -0.406,1.411c-0.271,0.403 -0.655,0.713 -1.151,0.929c-0.496,0.217 -1.07,0.325 -1.722,0.325l-3.308,0Zm1.378,-1.378c0,0.052 0.028,0.078 0.083,0.078l1.916,0c0.486,0 0.875,-0.145 1.164,-0.435c0.289,-0.291 0.439,-0.678 0.448,-1.164l0,-3.289c0,-0.494 -0.147,-0.886 -0.441,-1.176c-0.294,-0.291 -0.689,-0.436 -1.185,-0.436l-1.902,0c-0.055,0 -0.083,0.026 -0.083,0.078l0,6.344Z" style="fill:#d0d0d0;fill-rule:nonzero;"/><path d="M17.737,4.037c0,0.139 -0.074,0.208 -0.221,0.208l-4.63,0c-0.055,0 -0.082,0.026 -0.082,0.078l0,2.405c0,0.052 0.027,0.078 0.082,0.078l3.087,0c0.147,0 0.22,0.07 0.22,0.208l0,0.884c0,0.139 -0.073,0.208 -0.22,0.208l-3.087,0c-0.055,0 -0.082,0.026 -0.082,0.078l0,2.483c0,0.052 0.027,0.078 0.082,0.078l4.63,0c0.147,0 0.221,0.07 0.221,0.208l0,0.884c0,0.139 -0.074,0.208 -0.221,0.208l-6.09,0c-0.147,0 -0.221,-0.069 -0.221,-0.208l0,-8.684c0,-0.138 0.074,-0.208 0.221,-0.208l6.09,0c0.147,0 0.221,0.07 0.221,0.208l0,0.884Z" style="fill:#d0d0d0;fill-rule:nonzero;"/><path d="M23.152,12.149c-0.698,0 -1.311,-0.108 -1.839,-0.325c-0.529,-0.216 -0.935,-0.522 -1.22,-0.916c-0.285,-0.395 -0.427,-0.852 -0.427,-1.372l0,-0.273c0,-0.138 0.073,-0.208 0.22,-0.208l1.13,0c0.147,0 0.221,0.065 0.221,0.195l0,0.208c0,0.399 0.186,0.73 0.558,0.995c0.372,0.264 0.866,0.396 1.481,0.396c0.561,0 0.983,-0.112 1.268,-0.338c0.285,-0.225 0.427,-0.515 0.427,-0.871c0,-0.242 -0.078,-0.448 -0.234,-0.617c-0.156,-0.169 -0.379,-0.323 -0.668,-0.462c-0.29,-0.138 -0.724,-0.312 -1.303,-0.52c-0.652,-0.225 -1.18,-0.437 -1.584,-0.637c-0.404,-0.199 -0.742,-0.47 -1.013,-0.812c-0.271,-0.343 -0.407,-0.769 -0.407,-1.281c0,-0.762 0.294,-1.365 0.882,-1.807c0.588,-0.442 1.374,-0.663 2.357,-0.663c0.689,0 1.297,0.113 1.826,0.338c0.528,0.226 0.939,0.54 1.233,0.943c0.294,0.403 0.441,0.869 0.441,1.397l0,0.169c0,0.139 -0.074,0.208 -0.221,0.208l-1.13,0c-0.064,0 -0.117,-0.015 -0.158,-0.045c-0.041,-0.031 -0.062,-0.067 -0.062,-0.111l0,-0.143c0,-0.407 -0.177,-0.752 -0.531,-1.033c-0.353,-0.282 -0.842,-0.423 -1.467,-0.423c-0.505,0 -0.898,0.1 -1.178,0.299c-0.281,0.2 -0.421,0.481 -0.421,0.845c0,0.26 0.074,0.473 0.221,0.637c0.147,0.165 0.367,0.314 0.661,0.449c0.294,0.134 0.749,0.305 1.364,0.513c0.653,0.234 1.174,0.447 1.565,0.637c0.39,0.191 0.725,0.457 1.005,0.8c0.281,0.342 0.421,0.769 0.421,1.28c0,0.503 -0.138,0.947 -0.414,1.333c-0.275,0.385 -0.67,0.684 -1.185,0.897c-0.514,0.212 -1.121,0.318 -1.819,0.318Z" style="fill:#d0d0d0;fill-rule:nonzero;"/><path d="M29.091,12.045c-0.147,0 -0.22,-0.069 -0.22,-0.208l0,-8.684c0,-0.138 0.073,-0.208 0.22,-0.208l1.158,0c0.147,0 0.22,0.07 0.22,0.208l0,8.684c0,0.139 -0.073,0.208 -0.22,0.208l-1.158,0Z" style="fill:#d0d0d0;fill-rule:nonzero;"/><path d="M36.395,12.149c-0.689,0 -1.295,-0.128 -1.819,-0.383c-0.524,-0.256 -0.928,-0.618 -1.213,-1.086c-0.285,-0.468 -0.427,-1.005 -0.427,-1.612l0,-3.146c0,-0.615 0.142,-1.155 0.427,-1.618c0.285,-0.464 0.689,-0.824 1.213,-1.079c0.524,-0.256 1.13,-0.384 1.819,-0.384c0.68,0 1.279,0.126 1.798,0.377c0.519,0.252 0.921,0.594 1.206,1.027c0.285,0.434 0.427,0.923 0.427,1.469l0,0.052c0,0.139 -0.073,0.208 -0.22,0.208l-1.144,0c-0.064,0 -0.117,-0.011 -0.159,-0.032c-0.041,-0.022 -0.062,-0.05 -0.062,-0.085l0,-0.104c0,-0.468 -0.167,-0.853 -0.503,-1.157c-0.335,-0.303 -0.783,-0.455 -1.343,-0.455c-0.561,0 -1.011,0.158 -1.351,0.475c-0.339,0.316 -0.509,0.734 -0.509,1.254l0,3.25c0,0.52 0.179,0.938 0.537,1.255c0.358,0.316 0.822,0.474 1.392,0.474c0.551,0 0.985,-0.136 1.302,-0.409c0.317,-0.273 0.475,-0.648 0.475,-1.125l0,-0.793c0,-0.052 -0.027,-0.078 -0.082,-0.078l-1.626,0c-0.147,0 -0.221,-0.069 -0.221,-0.208l0,-0.858c0,-0.138 0.074,-0.208 0.221,-0.208l3.073,0c0.147,0 0.22,0.07 0.22,0.208l0,1.612c0,0.997 -0.31,1.773 -0.93,2.327c-0.62,0.555 -1.454,0.832 -2.501,0.832Z" style="fill:#d0d0d0;fill-rule:nonzero;"/><path d="M42.431,12.045c-0.147,0 -0.221,-0.069 -0.221,-0.208l0,-8.684c0,-0.138 0.074,-0.208 0.221,-0.208l1.102,0c0.129,0 0.22,0.048 0.276,0.143l3.858,5.954c0.018,0.035 0.039,0.048 0.062,0.039c0.023,-0.008 0.034,-0.03 0.034,-0.065l0,-5.863c0,-0.138 0.074,-0.208 0.221,-0.208l1.157,0c0.147,0 0.221,0.07 0.221,0.208l0,8.684c0,0.139 -0.074,0.208 -0.221,0.208l-1.13,0c-0.128,0 -0.22,-0.047 -0.275,-0.143l-3.859,-5.993c-0.018,-0.034 -0.039,-0.047 -0.062,-0.039c-0.023,0.009 -0.034,0.031 -0.034,0.065l0.014,5.902c0,0.139 -0.074,0.208 -0.221,0.208l-1.143,0Z" style="fill:#d0d0d0;fill-rule:nonzero;"/><path d="M60.909,7.287c-0.036,0.009 -0.055,0.024 -0.055,0.046c0,0.021 0.019,0.041 0.055,0.058c0.919,0.416 1.378,1.127 1.378,2.132c0,0.824 -0.291,1.45 -0.875,1.879c-0.583,0.429 -1.343,0.643 -2.28,0.643l-3.418,0c-0.147,0 -0.22,-0.069 -0.22,-0.208l0,-8.684c0,-0.138 0.073,-0.208 0.22,-0.208l3.308,0c1.001,0 1.773,0.204 2.315,0.611c0.542,0.408 0.813,1.023 0.813,1.846c0,0.893 -0.414,1.521 -1.241,1.885Zm-3.734,-3.042c-0.055,0 -0.083,0.026 -0.083,0.078l0,2.379c0,0.052 0.028,0.078 0.083,0.078l1.847,0c0.487,0 0.87,-0.11 1.15,-0.331c0.28,-0.221 0.421,-0.527 0.421,-0.917c0,-0.398 -0.141,-0.713 -0.421,-0.942c-0.28,-0.23 -0.663,-0.345 -1.15,-0.345l-1.847,0Zm1.957,6.487c0.478,0 0.857,-0.121 1.137,-0.364c0.28,-0.242 0.42,-0.572 0.42,-0.988c0,-0.424 -0.142,-0.756 -0.427,-0.994c-0.285,-0.239 -0.671,-0.358 -1.158,-0.358l-1.929,0c-0.055,0 -0.083,0.026 -0.083,0.078l0,2.548c0,0.052 0.028,0.078 0.083,0.078l1.957,0Z" style="fill:#d0d0d0;fill-rule:nonzero;"/><path d="M66.874,12.032c-0.147,0 -0.221,-0.069 -0.221,-0.208l0,-3.419c0,-0.026 -0.009,-0.056 -0.027,-0.091l-2.784,-5.122c-0.028,-0.043 -0.041,-0.082 -0.041,-0.117c0,-0.086 0.064,-0.13 0.193,-0.13l1.254,0c0.119,0 0.206,0.052 0.261,0.156l1.888,3.575c0.019,0.026 0.039,0.039 0.062,0.039c0.023,0 0.039,-0.013 0.049,-0.039l1.901,-3.575c0.055,-0.104 0.143,-0.156 0.262,-0.156l1.268,0c0.128,0 0.193,0.044 0.193,0.13c0,0.035 -0.014,0.074 -0.042,0.117l-2.811,5.122c-0.018,0.052 -0.027,0.083 -0.027,0.091l0,3.419c0,0.139 -0.074,0.208 -0.221,0.208l-1.157,0Z" style="fill:#d0d0d0;fill-rule:nonzero;"/></g></svg>