<svg width="188" height="97" viewBox="0 0 188 97" fill="none" xmlns="http://www.w3.org/2000/svg">
<path d="M114.403 0.000603824C130.18 0.301184 144.307 13.7178 144.62 30.2149L124.832 30.6772C124.768 21.2216 109.15 15.4331 104.195 26.0456C103.361 27.829 103.188 30.6718 103.188 30.6718L83.3976 30.5476C83.4109 28.4342 83.4858 27.9666 83.6434 26.7242C85.523 11.9544 98.6257 -0.0982537 114.403 0.000603824Z" fill="url(#paint0_linear)"/>
<path d="M31.556 0.000603824C47.3331 0.301184 61.4604 13.7178 61.773 30.2149L41.9854 30.6772C41.9213 21.2216 26.3032 15.4331 21.3483 26.0456C20.5147 27.829 20.341 30.6718 20.341 30.6718L0.550777 30.5476C0.564136 28.4342 0.638975 27.9666 0.796613 26.7242C2.67624 11.9544 15.7789 -0.0982537 31.556 0.000603824Z" fill="url(#paint1_linear)"/>
<path d="M186.067 66.8698C185.922 88.4221 158.606 105.528 138.641 92.3818C130.224 86.8391 124.908 76.9734 124.844 66.8645L144.633 66.7403C144.691 76.0649 160.264 82.0819 165.271 71.3652C166.106 69.5791 166.278 66.7363 166.278 66.7363C172.874 66.7803 179.471 66.8258 186.067 66.8698Z" fill="url(#paint2_linear)"/>
<path d="M103.221 66.8698C103.075 88.4221 75.7595 105.528 55.7943 92.3818C47.3767 86.8391 42.0611 76.9734 41.997 66.8645L61.7859 66.7403C61.8446 76.0649 77.4173 82.0819 82.4243 71.3652C83.2593 69.5791 83.4317 66.7363 83.4317 66.7363C90.0271 66.7803 96.6238 66.8258 103.221 66.8698Z" fill="url(#paint3_linear)"/>
<path d="M0 66.7823L19.7227 66.9059C19.6461 79.0344 11.1118 89.9854 0 94.7472V66.7823Z" fill="url(#paint4_linear)"/>
<path d="M186.026 30.6142L166.304 30.4906C166.38 18.3621 174.914 7.41108 186.026 2.64924V30.6142Z" fill="url(#paint5_linear)"/>
<path d="M2.38419e-06 36.0762V60.5632H5.57802V50.8861L13.061 60.5632H20.1531L11.7252 50.4409C14.7209 49.491 16.7394 47.0272 16.7394 43.3464C16.7394 38.5375 13.2985 36.0762 8.7568 36.0762H2.38419e-06ZM5.57802 46.9381V40.5263H6.23117C8.34123 40.5263 10.8644 40.6748 10.8644 43.7322C10.8644 46.7897 8.34123 46.9381 6.23117 46.9381H5.57802Z" fill="url(#paint6_linear)"/>
<path d="M40.0896 36.0762H34.5115V50.2355C34.5115 54.332 33.2648 55.5193 30.5338 55.5193C27.8004 55.5193 26.5537 54.332 26.5537 50.2355V36.0762H20.9755V51.8682C20.9755 57.9213 24.2977 61.0084 30.5338 61.0084C36.7675 61.0084 40.0896 57.9213 40.0896 51.8682V36.0762Z" fill="url(#paint7_linear)"/>
<path d="M51.7523 35.6173C47.8018 35.6173 43.7671 38.5239 43.7671 43.0952C43.7671 45.6481 45.4888 47.9338 48.4251 49.3883C51.3341 50.8453 53.9489 51.6467 53.9489 53.4278C53.9489 55.7135 51.6335 55.8322 50.414 55.8322C47.683 55.8322 44.4203 53.0716 44.4203 53.0716L41.63 57.7592C41.63 57.7592 45.103 60.9948 50.8296 60.9948C55.6112 60.9948 60.0614 58.9466 60.0614 53.1013C60.0614 49.8929 57.0633 47.5775 54.3348 46.4198C51.542 45.2325 49.2266 44.2529 49.2266 42.8874C49.2266 41.5517 50.2359 40.6908 52.1382 40.6908C54.6613 40.6908 57.0929 42.3828 57.0929 42.3828L59.3489 37.9326C59.3489 37.9302 56.2049 35.6173 51.7523 35.6173Z" fill="url(#paint8_linear)"/>
<path d="M59.7139 40.9716H65.532V60.5632H71.1102V40.9716H76.9283V36.0762H59.7139V40.9716Z" fill="url(#paint9_linear)"/>
<path d="M99.5006 36.0762H94.338L84.4531 60.5632H90.4494L92.2601 55.6653H101.579L103.389 60.5632H109.385L99.5006 36.0762ZM99.6787 50.7699H94.1599L96.8884 43.6457H96.9478L99.6787 50.7699Z" fill="url(#paint10_linear)"/>
<path d="M129.133 36.0762H123.555V50.2355C123.555 54.332 122.308 55.5193 119.577 55.5193C116.844 55.5193 115.597 54.332 115.597 50.2355V36.0762H110.019V51.8682C110.019 57.9213 113.341 61.0084 119.577 61.0084C125.811 61.0084 129.133 57.9213 129.133 51.8682V36.0762Z" fill="url(#paint11_linear)"/>
<path d="M132.417 36.0762V60.5632H139.509C146.25 60.5632 151.858 55.46 151.858 48.3036C151.858 41.1794 146.22 36.0762 139.509 36.0762H132.417ZM137.995 55.5787V41.0607H138.856C143.014 41.0607 145.834 44.2369 145.834 48.3333C145.805 52.4322 142.985 55.5787 138.856 55.5787H137.995Z" fill="url(#paint12_linear)"/>
<path d="M159.889 36.0762H154.311V60.5632H159.889V36.0762Z" fill="url(#paint13_linear)"/>
<path d="M162.389 48.29C162.389 55.4463 167.492 60.9948 174.735 60.9948C181.772 60.9948 187.054 55.4463 187.054 48.29C187.054 41.1361 181.535 35.6173 174.735 35.6173C167.997 35.6173 162.389 41.1361 162.389 48.29ZM168.412 48.29C168.412 44.6388 170.431 40.9876 174.735 40.9876C179.071 40.9876 181.03 44.6388 181.03 48.29C181.03 51.9436 179.19 55.5947 174.735 55.5947C170.163 55.5947 168.412 51.9436 168.412 48.29Z" fill="url(#paint14_linear)"/>
<defs>
<linearGradient id="paint0_linear" x1="5.01619e-08" y1="52.5" x2="187" y2="48" gradientUnits="userSpaceOnUse">
<stop stop-color="#562D6A"/>
<stop offset="1" stop-color="#AB3D6A"/>
</linearGradient>
<linearGradient id="paint1_linear" x1="5.01619e-08" y1="52.5" x2="187" y2="48" gradientUnits="userSpaceOnUse">
<stop stop-color="#562D6A"/>
<stop offset="1" stop-color="#AB3D6A"/>
</linearGradient>
<linearGradient id="paint2_linear" x1="5.01619e-08" y1="52.5" x2="187" y2="48" gradientUnits="userSpaceOnUse">
<stop stop-color="#562D6A"/>
<stop offset="1" stop-color="#AB3D6A"/>
</linearGradient>
<linearGradient id="paint3_linear" x1="5.01619e-08" y1="52.5" x2="187" y2="48" gradientUnits="userSpaceOnUse">
<stop stop-color="#562D6A"/>
<stop offset="1" stop-color="#AB3D6A"/>
</linearGradient>
<linearGradient id="paint4_linear" x1="5.01619e-08" y1="52.5" x2="187" y2="48" gradientUnits="userSpaceOnUse">
<stop stop-color="#562D6A"/>
<stop offset="1" stop-color="#AB3D6A"/>
</linearGradient>
<linearGradient id="paint5_linear" x1="5.01619e-08" y1="52.5" x2="187" y2="48" gradientUnits="userSpaceOnUse">
<stop stop-color="#562D6A"/>
<stop offset="1" stop-color="#AB3D6A"/>
</linearGradient>
<linearGradient id="paint6_linear" x1="5.01619e-08" y1="52.5" x2="187" y2="48" gradientUnits="userSpaceOnUse">
<stop stop-color="#562D6A"/>
<stop offset="1" stop-color="#AB3D6A"/>
</linearGradient>
<linearGradient id="paint7_linear" x1="5.01619e-08" y1="52.5" x2="187" y2="48" gradientUnits="userSpaceOnUse">
<stop stop-color="#562D6A"/>
<stop offset="1" stop-color="#AB3D6A"/>
</linearGradient>
<linearGradient id="paint8_linear" x1="5.01619e-08" y1="52.5" x2="187" y2="48" gradientUnits="userSpaceOnUse">
<stop stop-color="#562D6A"/>
<stop offset="1" stop-color="#AB3D6A"/>
</linearGradient>
<linearGradient id="paint9_linear" x1="5.01619e-08" y1="52.5" x2="187" y2="48" gradientUnits="userSpaceOnUse">
<stop stop-color="#562D6A"/>
<stop offset="1" stop-color="#AB3D6A"/>
</linearGradient>
<linearGradient id="paint10_linear" x1="5.01619e-08" y1="52.5" x2="187" y2="48" gradientUnits="userSpaceOnUse">
<stop stop-color="#562D6A"/>
<stop offset="1" stop-color="#AB3D6A"/>
</linearGradient>
<linearGradient id="paint11_linear" x1="5.01619e-08" y1="52.5" x2="187" y2="48" gradientUnits="userSpaceOnUse">
<stop stop-color="#562D6A"/>
<stop offset="1" stop-color="#AB3D6A"/>
</linearGradient>
<linearGradient id="paint12_linear" x1="5.01619e-08" y1="52.5" x2="187" y2="48" gradientUnits="userSpaceOnUse">
<stop stop-color="#562D6A"/>
<stop offset="1" stop-color="#AB3D6A"/>
</linearGradient>
<linearGradient id="paint13_linear" x1="5.01619e-08" y1="52.5" x2="187" y2="48" gradientUnits="userSpaceOnUse">
<stop stop-color="#562D6A"/>
<stop offset="1" stop-color="#AB3D6A"/>
</linearGradient>
<linearGradient id="paint14_linear" x1="5.01619e-08" y1="52.5" x2="187" y2="48" gradientUnits="userSpaceOnUse">
<stop stop-color="#562D6A"/>
<stop offset="1" stop-color="#AB3D6A"/>
</linearGradient>
</defs>
</svg>
